<svg preserveAspectRatio="none" overflow="visible" style="display: block;" width="21.9619" height="21.9619" viewBox="0 0 21.9619 21.9619" fill="none" xmlns="http://www.w3.org/2000/svg">
<g id="Icon" clip-path="url(#clip0_0_4)">
<path id="Vector" d="M10.9802 20.1315C16.034 20.1315 20.131 16.0346 20.131 10.9807C20.131 5.92687 16.034 1.82992 10.9802 1.82992C5.92633 1.82992 1.82937 5.92687 1.82937 10.9807C1.82937 16.0346 5.92633 20.1315 10.9802 20.1315Z" stroke="#195EE6" stroke-width="1.83016" stroke-linecap="round" stroke-linejoin="round"/>
<path id="Vector_2" d="M4.51027 4.51135L8.39022 8.3913" stroke="#195EE6" stroke-width="1.83016" stroke-linecap="round" stroke-linejoin="round"/>
<path id="Vector_3" d="M13.5696 8.3913L17.4495 4.51135" stroke="#195EE6" stroke-width="1.83016" stroke-linecap="round" stroke-linejoin="round"/>
<path id="Vector_4" d="M13.5696 13.5707L17.4495 17.4506" stroke="#195EE6" stroke-width="1.83016" stroke-linecap="round" stroke-linejoin="round"/>
<path id="Vector_5" d="M8.39022 13.5707L4.51027 17.4506" stroke="#195EE6" stroke-width="1.83016" stroke-linecap="round" stroke-linejoin="round"/>
<path id="Vector_6" d="M10.9802 14.641C13.0017 14.641 14.6405 13.0023 14.6405 10.9807C14.6405 8.95918 13.0017 7.3204 10.9802 7.3204C8.95864 7.3204 7.31986 8.95918 7.31986 10.9807C7.31986 13.0023 8.95864 14.641 10.9802 14.641Z" stroke="#195EE6" stroke-width="1.83016" stroke-linecap="round" stroke-linejoin="round"/>
</g>
<defs>
<clipPath id="clip0_0_4">
<rect width="21.9619" height="21.9619" fill="white"/>
</clipPath>
</defs>
</svg>
